<svg width="64" height="41" viewBox="0 0 64 41" fill="none" xmlns="http://www.w3.org/2000/svg">
<path d="M20.256 7.0725C19.68 7.2365 18.752 7.6465 18.208 8.0155C15.52 9.7785 15.68 12.1975 18.592 13.9605C19.648 14.596 19.936 14.9445 20.064 15.621C20.192 16.3795 20.064 16.6255 19.2 17.3225C16.864 19.188 16.704 20.2335 18.368 21.935C20.544 24.149 20.576 24.2105 20.544 25.8095C20.512 27.7775 20.288 28.372 19.136 29.684C18.208 30.7295 18.144 31.0575 18.624 32.431C18.784 32.923 20.512 34.0505 20.864 33.907C20.992 33.8455 21.12 33.907 21.12 34.0095C21.12 34.399 24.192 34.276 24.832 33.866C25.152 33.6815 25.472 33.5585 25.568 33.5995C25.664 33.6405 26.176 33.251 26.688 32.7385C27.552 31.8365 27.584 31.7545 27.2 30.7705C27.008 30.1965 26.624 29.643 26.368 29.4995C24.736 28.6385 24.512 24.2515 26.048 22.8985C26.336 22.6525 26.912 22.14 27.328 21.7915C28.896 20.3975 28.64 19.1675 26.336 17.3225C25.856 16.9535 25.44 16.4 25.376 16.113C25.248 15.539 26.048 14.35 26.56 14.35C26.752 14.35 26.88 14.227 26.88 14.0835C26.88 13.94 27.168 13.7145 27.552 13.571C28.416 13.2225 29.44 11.767 29.44 10.865C29.44 9.389 27.552 7.626 25.408 7.052C24.064 6.683 21.568 6.7035 20.256 7.0725ZM25.6 8.036C27.104 8.692 27.872 9.43 28.064 10.414C28.32 11.685 28 12.1975 26.016 13.4685C24.384 14.514 24.192 14.719 24.064 15.662C23.936 16.6665 24 16.769 25.472 17.917C26.816 18.942 27.04 19.27 27.04 20.008C27.04 20.6845 26.816 21.033 25.984 21.6685C24.544 22.7345 24 23.5955 23.776 25.092C23.488 27.142 23.872 28.495 25.152 29.7455C26.304 30.8935 26.464 31.5085 25.888 32.2465C25.28 33.0255 24.256 33.415 22.784 33.415C21.664 33.415 21.216 33.292 20.448 32.8205C19.2 32.0005 19.2 31.0165 20.48 29.725C22.624 27.5725 22.464 23.5545 20.16 22.2425C19.104 21.648 18.56 20.828 18.56 19.9055C18.56 19.2495 18.816 18.901 19.808 18.163C22.24 16.3795 22.272 15.088 19.968 13.7555C18.176 12.7305 17.6 12.0335 17.6 10.8445C17.6 9.7375 18.496 8.7535 20.128 8.0565C21.632 7.4005 24.128 7.4005 25.6 8.036Z" fill="black"/>
<path d="M39.456 7.749C38.432 8.0975 37.056 9.061 36.864 9.5735C36.512 10.5165 36.448 11.152 36.608 11.767C37.088 13.407 40.64 14.801 43.2 14.35C47.392 13.6325 48.8 10.373 45.824 8.405C44.192 7.339 41.472 7.052 39.456 7.749ZM43.936 8.446C44.96 8.7945 45.408 9.1225 45.952 9.963C47.68 12.6075 42.368 14.9035 39.104 12.956C37.12 11.767 37.184 9.9835 39.232 8.8355C40.128 8.323 40.64 8.2 41.792 8.2C42.592 8.2 43.552 8.3025 43.936 8.446Z" fill="black"/>
<path d="M35.68 17.4045C34.656 17.794 33.344 18.655 33.728 18.655C33.856 18.655 33.728 18.86 33.472 19.106C32.832 19.68 32.832 20.09 33.44 21.0535C34.592 22.837 37.696 23.4725 40.096 22.4475C42.176 21.5455 42.784 20.1515 41.728 18.737C40.64 17.2815 37.632 16.6255 35.68 17.4045ZM39.36 18.1835C40.64 18.737 40.928 19.106 40.96 20.049C40.96 21.9555 37.728 22.837 35.456 21.5455C32.48 19.844 36.128 16.7485 39.36 18.1835Z" fill="black"/>
</svg>
