<svg width="575" height="575" viewBox="0 0 575 575" fill="none" xmlns="http://www.w3.org/2000/svg">
<rect width="575" height="575" rx="112" fill="black"/>
<circle cx="381.5" cy="147.5" r="40.5" fill="white"/>
<circle cx="341.5" cy="280.5" r="31.5" fill="white"/>
<path d="M223 193.84C237.516 181.165 253 168.503 253 148C253 120.386 230.614 98 203 98C175.386 98 153 120.386 153 148C153 167.72 166.144 181.932 181 192.912C196 204 195.5 232.5 181 246.172C171.196 255.415 162 266.031 162 280.5C162 294.969 170.977 305.823 181 314.828C199 331 200.5 401.5 181 422.478C175.267 428.646 171 436.414 171 445.5C171 462.897 185.103 477 202.5 477C219.897 477 234 462.897 234 445.5C234 435.932 229.258 427.872 223 421.583C206.5 405 206.5 333.5 223 315.436C232.363 305.185 243 295.387 243 280.5C243 265.613 232.79 255.408 223 245.564C211.5 234 208.5 206.5 223 193.84Z" fill="white"/>
</svg>
